<svg xmlns="http://www.w3.org/2000/svg" viewBox="0 0 512 512">
  <defs>
    <linearGradient id="bg" x1="0" y1="0" x2="0" y2="1">
      <stop offset="0" stop-color="#fff1e0"/>
      <stop offset="1" stop-color="#ffcfae"/>
    </linearGradient>
    <radialGradient id="melon" cx="0.36" cy="0.32" r="0.85">
      <stop offset="0" stop-color="#b6f5a6"/>
      <stop offset="0.42" stop-color="#2f9e57"/>
      <stop offset="1" stop-color="#164d2c"/>
    </radialGradient>
    <radialGradient id="glow" cx="0.68" cy="0.72" r="0.55">
      <stop offset="0" stop-color="#a8f0a0" stop-opacity="0.55"/>
      <stop offset="1" stop-color="#a8f0a0" stop-opacity="0"/>
    </radialGradient>
    <radialGradient id="spec" cx="0.5" cy="0.5" r="0.5">
      <stop offset="0" stop-color="#fff" stop-opacity="0.95"/>
      <stop offset="0.7" stop-color="#fff" stop-opacity="0.75"/>
      <stop offset="1" stop-color="#fff" stop-opacity="0"/>
    </radialGradient>
    <radialGradient id="cherry" cx="0.35" cy="0.35" r="0.8">
      <stop offset="0" stop-color="#ffb3c1"/>
      <stop offset="0.45" stop-color="#ff3b5c"/>
      <stop offset="1" stop-color="#a8122e"/>
    </radialGradient>
    <radialGradient id="grape" cx="0.35" cy="0.35" r="0.8">
      <stop offset="0" stop-color="#d9c2ff"/>
      <stop offset="0.45" stop-color="#8d4fe0"/>
      <stop offset="1" stop-color="#4a1f8f"/>
    </radialGradient>
    <clipPath id="clip"><circle cx="256" cy="272" r="150"/></clipPath>
  </defs>
  <rect width="512" height="512" fill="url(#bg)"/>
  <!-- table -->
  <rect y="400" width="512" height="112" fill="#c8905c"/>
  <rect y="400" width="512" height="4" fill="#ffe9d6" opacity="0.7"/>
  <ellipse cx="256" cy="418" rx="190" ry="26" fill="#5a3418" opacity="0.22"/>
  <!-- small jellies -->
  <circle cx="118" cy="372" r="42" fill="url(#cherry)"/>
  <ellipse cx="103" cy="356" rx="12" ry="7" fill="#fff" opacity="0.85" transform="rotate(-35 103 356)"/>
  <circle cx="404" cy="380" r="36" fill="url(#grape)"/>
  <ellipse cx="392" cy="367" rx="10" ry="6" fill="#fff" opacity="0.85" transform="rotate(-35 392 367)"/>
  <!-- watermelon -->
  <circle cx="256" cy="272" r="150" fill="url(#melon)"/>
  <g clip-path="url(#clip)" stroke="#164d2c" stroke-width="22" fill="none" stroke-linecap="round" opacity="0.85">
    <path d="M256 118 q-10 77 0 154 q10 77 0 154"/>
    <path d="M196 128 q-40 72 -30 144 q10 72 30 144"/>
    <path d="M316 128 q40 72 30 144 q-10 72 -30 144"/>
    <path d="M144 170 q-40 50 -30 102 q10 52 40 100"/>
    <path d="M368 170 q40 50 30 102 q-10 52 -40 100"/>
  </g>
  <circle cx="256" cy="272" r="150" fill="url(#glow)"/>
  <circle cx="256" cy="272" r="146" fill="none" stroke="#164d2c" stroke-width="5" opacity="0.5"/>
  <ellipse cx="196" cy="202" rx="46" ry="26" fill="url(#spec)" transform="rotate(-40 196 202)"/>
  <circle cx="240" cy="172" r="9" fill="#fff" opacity="0.8"/>
  <path d="M256 126 q8 -22 26 -30" stroke="#6d4c2a" stroke-width="12" fill="none" stroke-linecap="round"/>
</svg>
